<svg id="Calque_1" data-name="Calque 1" xmlns="http://www.w3.org/2000/svg" viewBox="0 0 226.79 145.14"><defs><style>.cls-1{fill:#19181c;}.cls-2{fill:#231f20;}</style></defs><title>11</title><path class="cls-1" d="M480,642.31a34.87,34.87,0,0,1,6,.82,0.91,0.91,0,0,1,.41.38,1,1,0,0,1,.18.51,0.27,0.27,0,0,1-.09.23,17.73,17.73,0,0,1-3.4,1.14,25.43,25.43,0,0,0-3.44,1,11.09,11.09,0,0,1,.46,3,6.81,6.81,0,0,1-.39,2.33,0.36,0.36,0,0,1-.27.23,0.34,0.34,0,0,1-.34,0,6.48,6.48,0,0,1-1.53-2.21l-1.09-2.49q-0.78.55-2.92,2.46a25.43,25.43,0,0,1-3.08,2.37,0.52,0.52,0,0,1-.64-0.07,1.78,1.78,0,0,1-.46-0.89,0.6,0.6,0,0,1,0-.23q0.87-2.21,2.69-6.55a21.22,21.22,0,0,0-3.44-3.4,0.74,0.74,0,0,1-.34-0.66,0.68,0.68,0,0,1,.75-0.78,0.76,0.76,0,0,1,.33.13l0.28,0.15q0.94,0.21,2.83.75l1.73,0.64a26.21,26.21,0,0,0,0-3.42,15.63,15.63,0,0,1,.18-3.42,0.43,0.43,0,0,1,.5-0.32,0.33,0.33,0,0,1,.32.18,9.84,9.84,0,0,1,1.51,2.83l1,3.1q0.34,0.91.43,1.09a2.38,2.38,0,0,0,.75.91A1.81,1.81,0,0,0,480,642.31Zm-0.68,1.37-0.39.13a1.31,1.31,0,0,1-.41.1,0.41,0.41,0,0,1-.36-0.23,10.28,10.28,0,0,1-.89-1.71q-0.64-1.46-.78-1.73a5.52,5.52,0,0,1-.37-1.2,5.14,5.14,0,0,0-.39-1.22,17.41,17.41,0,0,0,0,2.49,10.75,10.75,0,0,1-.11,2.49,0.52,0.52,0,0,1-.59.39,0.72,0.72,0,0,1-.59-0.25l-0.41-.41a1,1,0,0,0-.48-0.27l-1-.43a2.49,2.49,0,0,0-1.09-.18,15.46,15.46,0,0,0,1.41,1.48,2.83,2.83,0,0,1,.93,1.76,9.11,9.11,0,0,0-1.32,2.3q-0.53,1.23-1,2.46a8.22,8.22,0,0,0,2.26-1.67l2-2a1.22,1.22,0,0,0,.26-0.42,0.82,0.82,0,0,1,.31-0.41,0.76,0.76,0,0,1,.34-0.08,1,1,0,0,1,.93.91,10.16,10.16,0,0,0,1.39,3.54,2.08,2.08,0,0,0,.14-0.78,8.4,8.4,0,0,0-.48-2.05c-0.08-.15-0.17-0.37-0.27-0.64a0.77,0.77,0,0,1-.14-0.43,0.49,0.49,0,0,1,.62-0.59,2.28,2.28,0,0,0,1.44-.14q0.21-.09,1.16-0.37a3.08,3.08,0,0,0,1.12-.53A7.84,7.84,0,0,0,479.36,643.68Z" transform="translate(-290.68 -628.75)"/><path class="cls-1" d="M397.57,760.39a21.58,21.58,0,0,1,2.54,2.75,0.56,0.56,0,0,1,0,.34,0.61,0.61,0,0,1-.12.32,0.16,0.16,0,0,1-.13.07,11,11,0,0,1-2.07-.79,15.68,15.68,0,0,0-2.05-.85,6.91,6.91,0,0,1-1,1.6,4.21,4.21,0,0,1-1.1,1,0.22,0.22,0,0,1-.22,0,0.21,0.21,0,0,1-.16-0.13,4,4,0,0,1,.14-1.66l0.45-1.62q-0.58,0-2.36,0a15.77,15.77,0,0,1-2.4-.08,0.32,0.32,0,0,1-.28-0.28,1.11,1.11,0,0,1,.13-0.6,0.41,0.41,0,0,1,.11-0.09q1.28-.71,3.85-2.07a13,13,0,0,0-.31-3,0.47,0.47,0,0,1,.1-0.45,0.42,0.42,0,0,1,.66-0.07,0.47,0.47,0,0,1,.11.19l0.08,0.18q0.37,0.47,1.06,1.47l0.58,1a16,16,0,0,0,1.35-1.62,9.6,9.6,0,0,1,1.43-1.56,0.27,0.27,0,0,1,.36,0,0.2,0.2,0,0,1,.08.21,6,6,0,0,1-.39,1.94l-0.72,1.89c-0.13.38-.2,0.61-0.22,0.69a1.47,1.47,0,0,0,0,.73A1.1,1.1,0,0,0,397.57,760.39Zm-0.86.38-0.24-.09a0.82,0.82,0,0,1-.24-0.11,0.26,0.26,0,0,1-.08-0.25,6.41,6.41,0,0,1,.25-1.17q0.27-.95.31-1.13a3.49,3.49,0,0,1,.3-0.71,3.17,3.17,0,0,0,.29-0.73,10.76,10.76,0,0,0-1,1.18,6.59,6.59,0,0,1-1,1.14,0.32,0.32,0,0,1-.43,0,0.45,0.45,0,0,1-.19-0.35l0-.36a0.65,0.65,0,0,0-.12-0.32l-0.33-.62a1.55,1.55,0,0,0-.45-0.52,9.55,9.55,0,0,0,.09,1.26,1.75,1.75,0,0,1-.24,1.2,5.58,5.58,0,0,0-1.53.58l-1.46.77a5,5,0,0,0,1.73.09l1.72-.19a0.78,0.78,0,0,0,.29-0.1,0.5,0.5,0,0,1,.31-0.07,0.47,0.47,0,0,1,.2.1,0.59,0.59,0,0,1,.09.8,6.25,6.25,0,0,0-.72,2.23,1.25,1.25,0,0,0,.37-0.32,5.19,5.19,0,0,0,.58-1.17c0-.1.06-0.24,0.12-0.41a0.47,0.47,0,0,1,.11-0.26,0.3,0.3,0,0,1,.53,0,1.4,1.4,0,0,0,.74.5c0.09,0,.32.12,0.7,0.28a1.87,1.87,0,0,0,.74.19A4.84,4.84,0,0,0,396.7,760.78Z" transform="translate(-290.68 -628.75)"/><path class="cls-1" d="M299.57,707.71a26.53,26.53,0,0,1,4.57.63,0.69,0.69,0,0,1,.31.29,0.76,0.76,0,0,1,.14.39,0.2,0.2,0,0,1-.07.17,13.53,13.53,0,0,1-2.59.87,19.77,19.77,0,0,0-2.63.8,8.43,8.43,0,0,1,.35,2.28,5.19,5.19,0,0,1-.29,1.77,0.28,0.28,0,0,1-.21.17,0.25,0.25,0,0,1-.26,0,4.93,4.93,0,0,1-1.17-1.69l-0.84-1.9q-0.59.42-2.23,1.88a19.23,19.23,0,0,1-2.35,1.81,0.39,0.39,0,0,1-.49-0.05,1.35,1.35,0,0,1-.35-0.68,0.47,0.47,0,0,1,0-.17q0.66-1.69,2.05-5a16.23,16.23,0,0,0-2.63-2.59,0.57,0.57,0,0,1-.26-0.5,0.51,0.51,0,0,1,.57-0.59,0.59,0.59,0,0,1,.25.1l0.22,0.11c0.47,0.11,1.19.3,2.16,0.58l1.32,0.49a19.88,19.88,0,0,0,0-2.61,11.91,11.91,0,0,1,.14-2.61,0.33,0.33,0,0,1,.38-0.24,0.25,0.25,0,0,1,.24.14,7.49,7.49,0,0,1,1.15,2.16l0.8,2.37q0.26,0.7.33,0.84a1.84,1.84,0,0,0,.58.7A1.4,1.4,0,0,0,299.57,707.71Zm-0.52,1-0.3.1a1,1,0,0,1-.31.08,0.32,0.32,0,0,1-.28-0.17,8,8,0,0,1-.68-1.31q-0.49-1.11-.59-1.32a4.23,4.23,0,0,1-.28-0.91,3.91,3.91,0,0,0-.3-0.93,13.51,13.51,0,0,0,0,1.9,8.16,8.16,0,0,1-.09,1.9,0.4,0.4,0,0,1-.45.3,0.55,0.55,0,0,1-.45-0.19l-0.31-.31a0.8,0.8,0,0,0-.37-0.21l-0.8-.33a1.89,1.89,0,0,0-.83-0.14,11.48,11.48,0,0,0,1.08,1.13,2.17,2.17,0,0,1,.71,1.34,6.92,6.92,0,0,0-1,1.76q-0.4.94-.78,1.88a6.25,6.25,0,0,0,1.72-1.27l1.5-1.53a1,1,0,0,0,.2-0.32,0.62,0.62,0,0,1,.23-0.31,0.58,0.58,0,0,1,.26-0.06,0.73,0.73,0,0,1,.71.7,7.74,7.74,0,0,0,1.06,2.7,1.57,1.57,0,0,0,.1-0.59,6.47,6.47,0,0,0-.36-1.57c-0.06-.12-0.13-0.28-0.21-0.49a0.6,0.6,0,0,1-.1-0.33,0.38,0.38,0,0,1,.47-0.45,1.72,1.72,0,0,0,1.1-.1q0.16-.07.89-0.28a2.33,2.33,0,0,0,.85-0.4A5.93,5.93,0,0,0,299,708.75Z" transform="translate(-290.68 -628.75)"/><path class="cls-1" d="M356.49,769.38a25.46,25.46,0,0,1-1.45,4.2,0.67,0.67,0,0,1-.33.24,0.73,0.73,0,0,1-.4.06,0.2,0.2,0,0,1-.15-0.1,12.94,12.94,0,0,1-.33-2.61,18.73,18.73,0,0,0-.26-2.63,8.18,8.18,0,0,1-2.21-.1,5,5,0,0,1-1.62-.61,0.27,0.27,0,0,1-.13-0.23,0.25,0.25,0,0,1,0-.25,4.76,4.76,0,0,1,1.81-.78l1.94-.43q-0.28-.64-1.35-2.45a18.59,18.59,0,0,1-1.27-2.55,0.38,0.38,0,0,1,.14-0.45,1.31,1.31,0,0,1,.71-0.2,0.45,0.45,0,0,1,.16.07q1.47,0.94,4.32,2.87a15.52,15.52,0,0,0,2.93-2,0.55,0.55,0,0,1,.53-0.15,0.5,0.5,0,0,1,.45.65,0.56,0.56,0,0,1-.14.22l-0.15.18q-0.28.64-.94,1.93l-0.71,1.15a19.06,19.06,0,0,0,2.46.51,11.43,11.43,0,0,1,2.43.62,0.32,0.32,0,0,1,.16.41,0.24,0.24,0,0,1-.18.2,7.21,7.21,0,0,1-2.25.68l-2.38.31-0.85.16a1.73,1.73,0,0,0-.76.41A1.31,1.31,0,0,0,356.49,769.38Zm-0.89-.69a2.28,2.28,0,0,0,0-.3,1,1,0,0,1,0-.31,0.3,0.3,0,0,1,.22-0.23,7.62,7.62,0,0,1,1.36-.4l1.36-.31a4,4,0,0,1,.91-0.09,3.8,3.8,0,0,0,.93-0.11,12.85,12.85,0,0,0-1.78-.37,7.85,7.85,0,0,1-1.77-.44,0.38,0.38,0,0,1-.2-0.48,0.53,0.53,0,0,1,.27-0.39l0.35-.24a0.77,0.77,0,0,0,.27-0.31q0.24-.34.46-0.69a1.85,1.85,0,0,0,.29-0.76,11.14,11.14,0,0,0-1.27.8,2.08,2.08,0,0,1-1.4.42,6.72,6.72,0,0,0-1.47-1.28l-1.63-1.09a6,6,0,0,0,.88,1.86l1.16,1.7a0.91,0.91,0,0,0,.27.25,0.59,0.59,0,0,1,.25.28,0.55,0.55,0,0,1,0,.26,0.7,0.7,0,0,1-.79.54,7.45,7.45,0,0,0-2.74.5,1.56,1.56,0,0,0,.54.21,6.2,6.2,0,0,0,1.54-.05l0.5-.11a0.56,0.56,0,0,1,.33,0,0.36,0.36,0,0,1,.34.53,1.66,1.66,0,0,0-.11,1.05q0,0.16.1,0.89a2.28,2.28,0,0,0,.22.88A5.73,5.73,0,0,0,355.6,768.7Z" transform="translate(-290.68 -628.75)"/><path class="cls-1" d="M439.26,758.63l0.27,0.52c0.12,0.21.22,0.37,0.3,0.48a1.74,1.74,0,0,0,.41.41,19.59,19.59,0,0,1,1.64,1.41,3.4,3.4,0,0,1,.34.73,0.74,0.74,0,0,0,.36.48,13.35,13.35,0,0,0,4.19.57l0.43,0a1.5,1.5,0,0,1,.48,0,0.48,0.48,0,0,1,.3.23,1.8,1.8,0,0,1,.25.78,0.4,0.4,0,0,1-.18.37,22.29,22.29,0,0,1-2.37,1.09,9.46,9.46,0,0,0-2.33,1.26q0.23,1,.48,2a9.77,9.77,0,0,1,.25,2,4.73,4.73,0,0,1-.36,1.89,0.32,0.32,0,0,1-.32.23,0.76,0.76,0,0,1-.68-0.43l-1.23-2.21a17.38,17.38,0,0,0-1.32-2.05q-1.71,1.66-5.38,4.9a0.6,0.6,0,0,1-.23,0,0.55,0.55,0,0,1-.21,0,1.06,1.06,0,0,1-.57-1c0-.12,0-0.3,0-0.53s0-.4,0-0.5a7.2,7.2,0,0,1,.62-2.6,22.87,22.87,0,0,0,1-2.53,16.78,16.78,0,0,0-2-1.44q-1.73-1.05-2.13-1.32a3.07,3.07,0,0,0-.84-0.27,0.84,0.84,0,0,1-.27-0.46l-0.09-.48a0.65,0.65,0,0,1,.22-0.64,0.57,0.57,0,0,1,.63-0.2l0.29,0.1,0.28,0.1a14.23,14.23,0,0,0,2.62.23q1.94,0,2.64.14,0-1.37.09-2.72a7.09,7.09,0,0,1,.55-2.55,0.4,0.4,0,0,1,.41-0.21,0.6,0.6,0,0,1,.5.21,2.34,2.34,0,0,1,.55,1A6.57,6.57,0,0,0,439.26,758.63Zm1.27,3.4a6.44,6.44,0,0,1-2.21-2.19,2.54,2.54,0,0,0-.25,1.19q0,0.2,0,.64c0,0.29,0,.51,0,0.66a2.41,2.41,0,0,1-.32,1.28,0.47,0.47,0,0,1-.64.14,7.35,7.35,0,0,0-3-.68,4.62,4.62,0,0,0-.66,0l3.19,2a1,1,0,0,1,.48.87,0.92,0.92,0,0,1-.14.48,13.1,13.1,0,0,0-1,2q-0.39,1-.8,2c0,0.29,0,.41.07,0.37a16.23,16.23,0,0,0,3.85-3.63,1.45,1.45,0,0,0,.27-0.51,1,1,0,0,1,.27-0.47,0.48,0.48,0,0,1,.27-0.09,0.72,0.72,0,0,1,.66.43q0.64,1.25,2,3.7c0-.17,0-0.34,0-0.53a6.11,6.11,0,0,0-.87-3,0.83,0.83,0,0,1,0-.91,0.87,0.87,0,0,1,.66-0.39l0.82-.18a10,10,0,0,0,1.41-.71,9.59,9.59,0,0,0-3.19-.43,2.42,2.42,0,0,1-.5-0.2,0.92,0.92,0,0,1-.23-0.64,2.39,2.39,0,0,1,0-.27v-0.27A0.66,0.66,0,0,0,440.53,762Z" transform="translate(-290.68 -628.75)"/><path class="cls-1" d="M515.21,679.34l-0.1.4c0,0.17-.06.29-0.07,0.38a1.22,1.22,0,0,0,0,.4,13.38,13.38,0,0,1,.19,1.49,2.27,2.27,0,0,1-.16.53,0.52,0.52,0,0,0,0,.42,9.27,9.27,0,0,0,1.89,2.24l0.24,0.18a1.07,1.07,0,0,1,.24.23,0.34,0.34,0,0,1,0,.25,1.26,1.26,0,0,1-.23.52,0.28,0.28,0,0,1-.26.1,15.27,15.27,0,0,1-1.73-.54,6.56,6.56,0,0,0-1.78-.43l-0.67,1.24a6.73,6.73,0,0,1-.8,1.15,3.27,3.27,0,0,1-1.07.8,0.22,0.22,0,0,1-.27,0,0.53,0.53,0,0,1-.15-0.54q0.2-.86.39-1.71a12.1,12.1,0,0,0,.27-1.67q-1.65.06-5,0a0.43,0.43,0,0,1-.14-0.08,0.39,0.39,0,0,1-.08-0.12,0.73,0.73,0,0,1,.18-0.79l0.26-.25,0.25-.24a5,5,0,0,1,1.52-1.05,15.87,15.87,0,0,0,1.67-.86,11.72,11.72,0,0,0-.38-1.69q-0.4-1.34-.49-1.67a2.1,2.1,0,0,0-.31-0.53,0.58,0.58,0,0,1,.07-0.36l0.18-.29a0.45,0.45,0,0,1,.41-0.23,0.39,0.39,0,0,1,.42.19l0.1,0.18,0.1,0.19a9.84,9.84,0,0,0,1.24,1.33q1,0.92,1.3,1.3l1.31-1.36a4.94,4.94,0,0,1,1.47-1.06,0.28,0.28,0,0,1,.31.09,0.41,0.41,0,0,1,.16.34,1.63,1.63,0,0,1-.16.75A4.46,4.46,0,0,0,515.21,679.34Zm-0.93,2.34a4.48,4.48,0,0,1-.12-2.15,1.76,1.76,0,0,0-.68.49l-0.28.34-0.29.36a1.67,1.67,0,0,1-.76.51,0.33,0.33,0,0,1-.39-0.23,5.08,5.08,0,0,0-1.23-1.75,3.29,3.29,0,0,0-.36-0.28q0.24,0.82.72,2.5a0.69,0.69,0,0,1-.16.67,0.63,0.63,0,0,1-.29.18,9.1,9.1,0,0,0-1.42.55l-1.34.66c-0.13.15-.18,0.22-0.13,0.22a11.26,11.26,0,0,0,3.67-.08,1,1,0,0,0,.38-0.14,0.69,0.69,0,0,1,.36-0.11,0.34,0.34,0,0,1,.18.08,0.5,0.5,0,0,1,.14.53q-0.25.94-.69,2.82l0.26-.26a4.23,4.23,0,0,0,1-2,0.57,0.57,0,0,1,.42-0.47,0.6,0.6,0,0,1,.52.11l0.51,0.29a6.92,6.92,0,0,0,1.06.29,6.62,6.62,0,0,0-1.44-1.71,1.73,1.73,0,0,1-.16-0.34,0.64,0.64,0,0,1,.18-0.43l0.14-.13,0.13-.14A0.46,0.46,0,0,0,514.28,681.68Z" transform="translate(-290.68 -628.75)"/><path class="cls-1" d="M416.25,642.13l0.39-.07L417,642a1.19,1.19,0,0,0,.35-0.18,13,13,0,0,1,1.24-.77,2.27,2.27,0,0,1,.54-0.07,0.5,0.5,0,0,0,.38-0.14,9,9,0,0,0,1.21-2.58s0-.12.06-0.29a1,1,0,0,1,.11-0.3,0.33,0.33,0,0,1,.21-0.14,1.22,1.22,0,0,1,.55,0,0.27,0.27,0,0,1,.2.19,14.94,14.94,0,0,1,.23,1.75,6.36,6.36,0,0,0,.34,1.75l1.37,0.09a6.54,6.54,0,0,1,1.34.24,3.19,3.19,0,0,1,1.14.61,0.22,0.22,0,0,1,.08.25,0.51,0.51,0,0,1-.42.35l-1.67.35a11.67,11.67,0,0,0-1.59.44q0.73,1.43,2.07,4.44a0.4,0.4,0,0,1,0,.16,0.39,0.39,0,0,1-.07.12,0.71,0.71,0,0,1-.77.16l-0.33-.13-0.32-.12a4.86,4.86,0,0,1-1.55-.92,15.19,15.19,0,0,0-1.44-1.12,11.34,11.34,0,0,0-1.33,1q-1,.9-1.28,1.11a2.07,2.07,0,0,0-.34.49,0.56,0.56,0,0,1-.35.08l-0.33,0a0.43,0.43,0,0,1-.37-0.27,0.38,0.38,0,0,1,0-.44l0.12-.16,0.12-.16a9.67,9.67,0,0,0,.67-1.64q0.42-1.24.62-1.67l-1.73-.6a4.77,4.77,0,0,1-1.53-.86,0.27,0.27,0,0,1-.05-0.3,0.4,0.4,0,0,1,.23-0.28,1.57,1.57,0,0,1,.73-0.16A4.34,4.34,0,0,0,416.25,642.13Zm2.44-.13a4.35,4.35,0,0,1-1.85,1,1.7,1.7,0,0,0,.71.4l0.42,0.11,0.43,0.11a1.63,1.63,0,0,1,.76.46,0.32,0.32,0,0,1,0,.44,4.92,4.92,0,0,0-1,1.8,3,3,0,0,0-.1.43l1.92-1.66a0.67,0.67,0,0,1,.65-0.13,0.61,0.61,0,0,1,.28.18,8.82,8.82,0,0,0,1.07,1l1.13,0.92q0.28,0.09.25,0a10.92,10.92,0,0,0-1.56-3.21,1,1,0,0,0-.27-0.28,0.67,0.67,0,0,1-.25-0.27,0.33,0.33,0,0,1,0-.19,0.48,0.48,0,0,1,.41-0.34q0.93-.16,2.77-0.54l-0.33-.12a4.11,4.11,0,0,0-2.12-.05,0.56,0.56,0,0,1-.59-0.18,0.59,0.59,0,0,1-.12-0.5q0-.52,0-0.57a6.82,6.82,0,0,0-.17-1.05,6.43,6.43,0,0,0-.92,2,1.66,1.66,0,0,1-.23.28,0.62,0.62,0,0,1-.46,0L419.3,642l-0.18-.05A0.44,0.44,0,0,0,418.69,642Z" transform="translate(-290.68 -628.75)"/><path class="cls-1" d="M321,673l0.12-.29a2.76,2.76,0,0,0,.1-0.28,0.89,0.89,0,0,0,0-.3,10.14,10.14,0,0,1,0-1.14,1.79,1.79,0,0,1,.18-0.38,0.39,0.39,0,0,0,.07-0.31,7,7,0,0,0-1.17-1.89l-0.16-.16A0.8,0.8,0,0,1,320,668a0.25,0.25,0,0,1,0-.2,0.93,0.93,0,0,1,.23-0.36,0.21,0.21,0,0,1,.21,0,12,12,0,0,1,1.24.6,5,5,0,0,0,1.29.52l0.65-.86a5.13,5.13,0,0,1,.73-0.77,2.49,2.49,0,0,1,.89-0.49,0.17,0.17,0,0,1,.2.05,0.4,0.4,0,0,1,.05.42L325,668.12a9,9,0,0,0-.39,1.22q1.25,0.14,3.79.55a0.3,0.3,0,0,1,.09.08,0.28,0.28,0,0,1,.05.1,0.56,0.56,0,0,1-.23.57l-0.22.16-0.21.15a3.79,3.79,0,0,1-1.26.62,12,12,0,0,0-1.35.46,8.91,8.91,0,0,0,.1,1.31q0.15,1.05.18,1.31a1.62,1.62,0,0,0,.17.43,0.44,0.44,0,0,1-.09.26l-0.16.2a0.34,0.34,0,0,1-.33.13,0.3,0.3,0,0,1-.29-0.19l-0.05-.15-0.05-.15a7.53,7.53,0,0,0-.78-1.14c-0.42-.53-0.69-0.91-0.83-1.12l-1.13.87a3.75,3.75,0,0,1-1.22.63,0.21,0.21,0,0,1-.22-0.1,0.31,0.31,0,0,1-.08-0.27,1.21,1.21,0,0,1,.2-0.54A3.38,3.38,0,0,0,321,673Zm1-1.65a3.4,3.4,0,0,1-.15,1.63,1.32,1.32,0,0,0,.56-0.29l0.25-.23,0.26-.23a1.27,1.27,0,0,1,.62-0.3,0.25,0.25,0,0,1,.27.21,3.85,3.85,0,0,0,.73,1.45,2.47,2.47,0,0,0,.24.25q-0.09-.64-0.26-2a0.52,0.52,0,0,1,.19-0.48,0.49,0.49,0,0,1,.24-0.1A6.91,6.91,0,0,0,326,671l1.08-.35c0.12-.1.16-0.15,0.13-0.15a8.54,8.54,0,0,0-2.76-.35,0.77,0.77,0,0,0-.3.06,0.52,0.52,0,0,1-.28,0,0.26,0.26,0,0,1-.13-0.08,0.38,0.38,0,0,1,0-.41q0.3-.68.84-2l-0.22.17a3.23,3.23,0,0,0-.94,1.37,0.43,0.43,0,0,1-.37.3,0.46,0.46,0,0,1-.38-0.14l-0.35-.27a5.15,5.15,0,0,0-.76-0.34,5.05,5.05,0,0,0,.89,1.44,1.18,1.18,0,0,1,.08.27,0.48,0.48,0,0,1-.18.31l-0.12.08-0.11.09A0.35,0.35,0,0,0,321.93,671.3Z" transform="translate(-290.68 -628.75)"/><path class="cls-1" d="M356.36,637.8q-1.41-1.41-2-2.1a11.19,11.19,0,0,1-1.55-2.44,0.24,0.24,0,0,1,0-.11,0.6,0.6,0,0,1,.22-0.43,0.69,0.69,0,0,1,.49-0.2,1.14,1.14,0,0,1,.57.25l0.55,0.37a8.82,8.82,0,0,0,4.54,1.21,18.9,18.9,0,0,1,.16-5.29,0.38,0.38,0,0,1,.46-0.3,0.86,0.86,0,0,1,.82.46q0.71,1,1.89,3a27.65,27.65,0,0,0,1.64,3.24h0.32a3.16,3.16,0,0,0,.53.68l1.94,0.8a5.83,5.83,0,0,0,2,.46,2.86,2.86,0,0,0,.55-0.08,2.81,2.81,0,0,1,.55-0.08,1.07,1.07,0,0,1,.89.5,0.75,0.75,0,0,1,.11.41,0.71,0.71,0,0,1-.27.64,23,23,0,0,1-4.68,2.19l-0.73.23a0.89,0.89,0,0,0-.55.53,6.43,6.43,0,0,0-.27,1.92,19.11,19.11,0,0,1-.09,1.94,14.88,14.88,0,0,0-.62,3.17,0.84,0.84,0,0,1-.46.43,0.74,0.74,0,0,1-.55-0.08,0.67,0.67,0,0,1-.34-0.35q-0.3-1.09-.57-2.19a8.23,8.23,0,0,0-.87-2.05q-1.05,1-3.17,3.17a7.05,7.05,0,0,1-1.28.91,3.52,3.52,0,0,0-1.21,1.14,0.5,0.5,0,0,1-.46.27,0.23,0.23,0,0,1-.15,0l-0.49-.39a0.54,0.54,0,0,1-.27-0.39,3.35,3.35,0,0,1,.34-1.76l0.87-1.62,1.51-2.92a9.06,9.06,0,0,0,.91-3.06A3.34,3.34,0,0,0,356.36,637.8Zm1.57,0q0.09,0.14,1,1.19a1.94,1.94,0,0,1,.62,1.16,1.12,1.12,0,0,1-.18.59,16.29,16.29,0,0,0-1.25,2.46,18.1,18.1,0,0,1-1.16,2.44,1.55,1.55,0,0,0-.39.71,0.48,0.48,0,0,0,.09.27,19.8,19.8,0,0,0,3.47-3.63,3.58,3.58,0,0,1,.59-0.82,0.48,0.48,0,0,1,.34-0.16,0.83,0.83,0,0,1,.8.53q0.07,0.32,1,2.87a1.11,1.11,0,0,0,.32-0.75v-2a2.41,2.41,0,0,0-.32-1.21,0.38,0.38,0,0,0,.15-0.38,0.3,0.3,0,0,1,.08-0.31q0.57-.3,2.4-1a12.17,12.17,0,0,0,2.28-1.14,19,19,0,0,0-2.19-.82,6.42,6.42,0,0,1-2.1-1.07,10.47,10.47,0,0,1-1-1.12,0.5,0.5,0,0,1-.16-0.32,1.14,1.14,0,0,0-.14-0.36,8.89,8.89,0,0,1-.84-1.82l-0.32-.73a2.12,2.12,0,0,0-.5-0.68,7.29,7.29,0,0,0-.16,1.48,5.4,5.4,0,0,0,.32,1.86,1.65,1.65,0,0,1,.07,1.33,0.65,0.65,0,0,1-.84.07,8.36,8.36,0,0,0-1-.62q-1.05-.2-3.17-0.82a0.35,0.35,0,0,0-.27,0,0.22,0.22,0,0,0,0,.11,12.79,12.79,0,0,0,1.23,1.32A8.85,8.85,0,0,1,357.94,637.8Z" transform="translate(-290.68 -628.75)"/><path class="cls-1" d="M491.86,743.62q1.83,0.27,2.65.46a10.32,10.32,0,0,1,2.49,1,0.24,0.24,0,0,1,.08.07,0.55,0.55,0,0,1,.08.44,0.64,0.64,0,0,1-.25.42,1.07,1.07,0,0,1-.56.13l-0.61,0a8.15,8.15,0,0,0-4,1.6,17.45,17.45,0,0,1,2.79,4,0.35,0.35,0,0,1-.18.47,0.8,0.8,0,0,1-.86.11q-1.06-.34-3.06-1.19a25.51,25.51,0,0,0-3-1.5l-0.24.18a2.84,2.84,0,0,0-.77-0.22l-1.88.47a5.42,5.42,0,0,0-1.76.78,2.57,2.57,0,0,0-.36.36,2.66,2.66,0,0,1-.36.36,1,1,0,0,1-.94.12,0.69,0.69,0,0,1-.31-0.24,0.66,0.66,0,0,1-.15-0.62,21.21,21.21,0,0,1,2.27-4.2l0.42-.57a0.82,0.82,0,0,0,.12-0.69,5.9,5.9,0,0,0-.85-1.57,17.9,17.9,0,0,1-1-1.49,13.63,13.63,0,0,0-1.29-2.69,0.77,0.77,0,0,1,.1-0.57,0.68,0.68,0,0,1,.45-0.24,0.61,0.61,0,0,1,.45.07l1.63,1.31a7.53,7.53,0,0,0,1.77,1q0.22-1.34.61-4.1a6.56,6.56,0,0,1,.45-1.38,3.26,3.26,0,0,0,.27-1.51,0.46,0.46,0,0,1,.19-0.45,0.21,0.21,0,0,1,.13,0l0.58,0a0.5,0.5,0,0,1,.42.14,3.1,3.1,0,0,1,.71,1.49q0.13,0.85.25,1.68l0.49,3a8.34,8.34,0,0,0,1,2.77A3.09,3.09,0,0,0,491.86,743.62Zm-1.17.87c-0.1,0-.56-0.14-1.4-0.33a1.8,1.8,0,0,1-1.1-.53,1.06,1.06,0,0,1-.19-0.54,15.14,15.14,0,0,0-.42-2.52,16.73,16.73,0,0,1-.48-2.45,1.43,1.43,0,0,0-.1-0.74,0.45,0.45,0,0,0-.22-0.15,18.3,18.3,0,0,0-.58,4.6,3.3,3.3,0,0,1,0,.94,0.44,0.44,0,0,1-.17.31,0.77,0.77,0,0,1-.88,0q-0.23-.2-2.36-1.56a1,1,0,0,0,.18.73l0.41,0.56,0.7,0.95a2.24,2.24,0,0,0,.9.72,0.35,0.35,0,0,0,.1.36,0.27,0.27,0,0,1,.11.27q-0.26.53-1.2,2.1a11.13,11.13,0,0,0-1.07,2.1,17.38,17.38,0,0,0,2.08-.59,5.94,5.94,0,0,1,2.15-.36,9.76,9.76,0,0,1,1.34.29,0.46,0.46,0,0,1,.29.15,1.06,1.06,0,0,0,.3.2,8.17,8.17,0,0,1,1.63.89l0.64,0.37a1.93,1.93,0,0,0,.75.23,6.75,6.75,0,0,0-.7-1.19,5,5,0,0,0-1.26-1.2,1.53,1.53,0,0,1-.78-1,0.6,0.6,0,0,1,.59-0.52,7.66,7.66,0,0,0,1.12-.12q0.89-.42,2.81-1.13a0.33,0.33,0,0,0,.18-0.19,0.2,0.2,0,0,0-.1-0.06,11.71,11.71,0,0,0-1.64-.31A8.3,8.3,0,0,1,490.69,744.48Z" transform="translate(-290.68 -628.75)"/><path class="cls-2" d="M331.9,677.85q4.64,0,5.59,8.81v2.46a24.05,24.05,0,0,1-4.26,9.94,1.92,1.92,0,0,0-.54.57v-0.47a8.34,8.34,0,0,1,4.1,3.79q1.74,2.59,2.34,8a21.69,21.69,0,0,1-2.87,11.46,8.43,8.43,0,0,1-4.1,2.71h-0.38q-2.56,0-2.56-4.89-1.52-21.75-1.52-33.46-0.25-3.38-.79-6.69A8,8,0,0,1,331.9,677.85Zm-2,3.22a188.72,188.72,0,0,1,1,22.25q0.51,5.93,1.26,19.13l-0.06-.06a5.08,5.08,0,0,0,2.68-3.16,24.53,24.53,0,0,0,1.48-8.27q-0.92-5.46-1.45-5.46a7.39,7.39,0,0,0-3.44-4.17,2.31,2.31,0,0,1-2.05-1.26v-0.69a22,22,0,0,0,5.3-10.1v-1.93q-0.57-7-2.75-7A2.78,2.78,0,0,0,329.94,681.07Z" transform="translate(-290.68 -628.75)"/><path class="cls-2" d="M352.54,680.5q4.29,0,6.47,17.61,0.13,1.67.13,4.23v0.51a5.47,5.47,0,0,1-.09,1,2.73,2.73,0,0,1,.09,1V705a2.73,2.73,0,0,1-.09,1,4.94,4.94,0,0,1,.09.63q0,13.57-4,16.92a7.51,7.51,0,0,1-2.24.63h-1q-5.15-1.23-6.34-12.34l-0.38-5.18q0-17.93,4.58-25A4.78,4.78,0,0,1,352.54,680.5ZM348,706.26a37,37,0,0,0,1.86,12.31q1.55,3.09,2.4,3.09h0.13q1.89,0,2.53-3.06,1.36-3.22,1.36-13.86v-2.53a64.68,64.68,0,0,0-2.62-16.89,6.75,6.75,0,0,0-1.26-2.18,1.33,1.33,0,0,0-.88.82Q348,691.39,348,706.26Z" transform="translate(-290.68 -628.75)"/><path class="cls-2" d="M367.22,680.22q1.33,0,6.5,17.74,0.73,4,5.93,19.92h-1v-0.44q-0.73-15.34-.73-17.24,0-.57.16-3.85,0-.35,0-1.52,0.25-2.49.25-3.95v-9a1.46,1.46,0,0,1,1.7-1.33l1.33,0.69q-0.38,7.48-.38,11.08v3.57q0,11,.69,28.69l-1.26.63q-1.58,0-9.94-28.47l-3.31-11.3,1.17,1.89,0.09-1.83q0.22,2.62.22,4.17l0,1.07q-0.25,7-.25,9.82a212.8,212.8,0,0,0,1.14,23.93h-1.58a1.25,1.25,0,0,1-1.48-1.33q-0.73-11-.73-19.73V681.54A1.4,1.4,0,0,1,367.22,680.22Z" transform="translate(-290.68 -628.75)"/><path class="cls-2" d="M392.79,682a3.61,3.61,0,0,1,1.86.57q0,0.41-.13,2,0.38,4.67.38,22.22v0.88q0,1.23.25,8.08-0.51,9.34-4.58,9.34H390q-4.07-1-4.07-2.46-0.63-.32-0.76-6.47a2.44,2.44,0,0,1,1.58-.79,1.52,1.52,0,0,1,1.26,1.52q0,5.3,1.36,5.3a2.33,2.33,0,0,0,1,.38h0.13q1.42,0,1.86-6.6v-0.6q-0.25-6.63-.25-8v-1.52q0-7-.13-18a25.26,25.26,0,0,1-.25-3.69v-0.88A2.28,2.28,0,0,1,392.79,682Z" transform="translate(-290.68 -628.75)"/><path class="cls-2" d="M409.11,680.5q4.29,0,6.47,17.61,0.13,1.67.13,4.23v0.51a5.47,5.47,0,0,1-.09,1,2.73,2.73,0,0,1,.09,1V705a2.73,2.73,0,0,1-.09,1,4.94,4.94,0,0,1,.09.63q0,13.57-4,16.92a7.51,7.51,0,0,1-2.24.63h-1q-5.15-1.23-6.34-12.34l-0.38-5.18q0-17.93,4.58-25A4.78,4.78,0,0,1,409.11,680.5Zm-4.51,25.76a37,37,0,0,0,1.86,12.31q1.55,3.09,2.4,3.09H409q1.89,0,2.53-3.06,1.36-3.22,1.36-13.86v-2.53a64.68,64.68,0,0,0-2.62-16.89,6.75,6.75,0,0,0-1.26-2.18,1.33,1.33,0,0,0-.88.82Q404.6,691.39,404.6,706.26Z" transform="translate(-290.68 -628.75)"/><path class="cls-2" d="M425.21,679.37H426A1.83,1.83,0,0,1,427.2,681v0.63q1.1,20.52,2.75,33,1,7.89,2.46,7.89a1.73,1.73,0,0,0,1-1.77q0-5-1-25,0.16-3.66.16-7.07v-3l-0.16-.85,0.13-.28q-0.09-1.55-.41-3.69l1-.76h0.69q1.26,0,1.55,4.17a1.64,1.64,0,0,1-.09.88q0.09,1.26.09,2.15v4.07l-0.13.76q0-.54.16-0.54-0.16,2.15-.16,2.78v0.51q1,22,1,25.92-0.41,4.26-4.07,4.26-4.17,0-5.33-12.69-1.39-10.83-2.68-32.26Z" transform="translate(-290.68 -628.75)"/><path class="cls-2" d="M445.29,677.22h1a3.52,3.52,0,0,0,2.08.79,8.86,8.86,0,0,1,4.39,3.91q2.21,5.33,2.21,7.92v1.26q0,8.52-4.07,11.71,4.8,1.14,5.71,13.38V721q0,1.07.16,3.44l-0.92.6h-1l-0.95-.73q-0.16-2.81-.16-4.07v-4.55a18.54,18.54,0,0,0-2.78-9.38,4.73,4.73,0,0,0-2.87-1.61h0.69q0.09,2.08.09,3.41V713q0.25,6.25.25,7.07v0.38a1.64,1.64,0,0,1-1.55,1,2.27,2.27,0,0,1-1.45-1l0.16-1.07q-0.25-5.3-.25-7v-6.94a1.5,1.5,0,0,1-.76-1v-0.6a3.38,3.38,0,0,1,.6-1q-0.6-16.67-1.64-24.75Zm2.18,3q0.69,8.55,1.26,20.9,3.41-2.3,3.41-9.41V690q0-3.19-2.65-8.11-1.77-1.61-2.49-1.61h0.47Z" transform="translate(-290.68 -628.75)"/><path class="cls-2" d="M482.28,678.54a1.78,1.78,0,0,1,1.33,1l-0.16.73q2.4,14,2.4,21.84,0,2.59.13,13.42l-0.88.6H484.3a1.87,1.87,0,0,1-1.17-1.17q-0.13-9.22-.13-13.57l-0.13-1.67a0.8,0.8,0,0,0,.13-0.38q0-3.5-2.4-19.41Q480.61,678.54,482.28,678.54ZM484,721q1.89,0,1.89,1.55-0.32,2.11-2.11,2.11a2,2,0,0,1-1.48-1.77Q482.25,721.79,484,721Z" transform="translate(-290.68 -628.75)"/></svg>