<svg id="Calque_1" data-name="Calque 1" xmlns="http://www.w3.org/2000/svg" viewBox="0 0 54.59 68.23"><title>dance</title><path d="M-74.06,451.43l-4,1c-0.7.19-1.4,0.41-2.1,0.61l0.07,0.4a9.53,9.53,0,0,1,1.3.92,3.5,3.5,0,0,1,.51,1,2.49,2.49,0,0,1-1.17.26,38.08,38.08,0,0,1-4.08-1.82,3,3,0,0,0-2.68-.16c-4,1.49-8,2.86-12,4.3-1,.34-1.86.8-2.79,1.2l0.12,0.36,1.35-.19-1.34.82c0.5,1.5,1,1.53,3,.1-0.33,1.41-1.52,1.32-2.6,1.73l1.28,1.79-0.24.21-2-1.25c-0.55,2.51.62,4.48,1.16,6.61l-0.69-1-0.22.13,0.84,1.67-0.22.26-1.06-1-0.28,1.32c-0.53-.56-0.84-1.78-2-0.73l-0.58-.94-0.24.06,0.23,1.54-0.25-.18c-0.12.19-.25,0.37-0.36,0.57a1.78,1.78,0,0,1-.35.71,5.47,5.47,0,0,1-1.33-.15l-0.34.9-1.57-.34,0.57,1.1-0.34.33-1.32-1.84-0.59.84-0.68-.85c-1.19,1.92-.13,4.49-2.24,6.19v-3l-1,1.4c-0.42.61-.81,1.24-1.28,1.81a1.11,1.11,0,0,0,.73,1.84c2.68,0.33,4.47,1.85,6,4a5.65,5.65,0,0,0,2.49,1.64,60.8,60.8,0,0,0,6.27,2.21,25.75,25.75,0,0,0,4,.48c-0.21-1.16-.39-2-0.52-2.9-0.39-2.67,1-4.78,2.15-7a19.62,19.62,0,0,0,1.32-3.77,1.61,1.61,0,0,0-.5-0.87c-0.9-1.2-.86-2.2.37-3a11.38,11.38,0,0,0,4.31-4.59c0.23-.49,1.37-0.56,2.09-0.82a6.66,6.66,0,0,1,.54,1.69,14.35,14.35,0,0,1-2.09,7.82c-1.42,2.49-1.28,5.32-1.68,8-0.47,3.22-1,6.44-1.68,9.6a4.37,4.37,0,0,1-1.89,2.26c-2.08,1.36-4.44,1.05-6.73.7-3-.47-6.07-1-9.11-1.52a4.67,4.67,0,0,0-3.35.65c-2.18,1.33-4.53,2.4-7.07,3.7,1,2.09,2.12,4.48,3.31,6.84a2.26,2.26,0,0,0,1.16,1,3.28,3.28,0,0,1,2.14,2.26,9.63,9.63,0,0,0,1.17,2.71c1.24,1.68,1.18,3.57,1.08,5.46a3.69,3.69,0,0,1-.88,1.38h-1.09a29.21,29.21,0,0,1-2.13-3.08c-1.19-2.27-2-4.79-3.42-6.88a53.66,53.66,0,0,0-5.63-6.35c-1.48-1.55-3.09-3-4.65-4.44v-1.91a20.29,20.29,0,0,1,6.8-5.81,8.12,8.12,0,0,1-.64-1,55.68,55.68,0,0,1-2.78-6.73,25,25,0,0,1-.81-6.46,51.7,51.7,0,0,1,.51-8.53c0.53-3.36,3.58-5,5.94-6.76a64.63,64.63,0,0,0,5.88-5.41,4.15,4.15,0,0,1,3.51-1.33,2,2,0,0,0,1,0c0.86-.56,1.55-0.77,2.08.38a0.63,0.63,0,0,0,.59.12,5.79,5.79,0,0,1,4.09-.4,3.48,3.48,0,0,0,1.29-.33l2-.52-0.1,1.25a13.1,13.1,0,0,1,1.89-.71c2.87-.59,5.75-1.18,8.64-1.65,2.3-.37,4.64-0.54,7-0.87,1.32-.19,2.62-0.53,3.93-0.8h0.55l-0.19.92c1.2,0.12,2.38-1.47,3.46.17v0.55Z" transform="translate(128.65 -449.79)"/></svg>