<svg id="Calque_1" data-name="Calque 1" xmlns="http://www.w3.org/2000/svg" viewBox="0 0 48.38 56"><defs><style>.cls-1{fill:#000100;}.cls-2{fill:none;stroke:#000100;stroke-linecap:round;stroke-miterlimit:10;stroke-width:2.58px;}</style></defs><title>miaou</title><path class="cls-1" d="M-100.26,503.13h-1.11s-2.48-.46-1.26,1.89a0.66,0.66,0,0,0,.21.08l0.15,0.49,0.08-.5A0.52,0.52,0,0,0-102,505a0.65,0.65,0,0,0,.31.15l0.13,0.43,0.07-.44a0.59,0.59,0,0,0,.25-0.15,0.45,0.45,0,0,0,.23.13l0.14,0.46,0.08-.48a0.7,0.7,0,0,0,.25-0.14l0.88,0S-99.44,503.56-100.26,503.13Z" transform="translate(116.38 -449.6)"/><path class="cls-1" d="M-105.38,502.3h-1.11s-2.48-.46-1.26,1.89a0.66,0.66,0,0,0,.21.08l0.15,0.49,0.08-.5a0.51,0.51,0,0,0,.19-0.07,0.65,0.65,0,0,0,.31.15l0.13,0.43,0.07-.44a0.59,0.59,0,0,0,.25-0.15,0.45,0.45,0,0,0,.23.13l0.14,0.46,0.08-.48a0.7,0.7,0,0,0,.25-0.14l0.88,0S-104.56,502.73-105.38,502.3Z" transform="translate(116.38 -449.6)"/><path class="cls-1" d="M-97.34,503.13h1.11s2.48-.46,1.26,1.89a0.66,0.66,0,0,1-.21.08l-0.15.49-0.08-.5a0.51,0.51,0,0,1-.19-0.07,0.65,0.65,0,0,1-.31.15l-0.13.43-0.07-.44a0.59,0.59,0,0,1-.25-0.15,0.45,0.45,0,0,1-.23.13l-0.14.46-0.08-.48A0.7,0.7,0,0,1-97,505l-0.88,0S-98.16,503.56-97.34,503.13Z" transform="translate(116.38 -449.6)"/><path class="cls-1" d="M-92.22,502.3h1.11s2.48-.46,1.26,1.89a0.66,0.66,0,0,1-.21.08l-0.15.49-0.08-.5a0.51,0.51,0,0,1-.19-0.07,0.65,0.65,0,0,1-.31.15l-0.13.43-0.07-.44a0.59,0.59,0,0,1-.25-0.15,0.45,0.45,0,0,1-.23.13l-0.14.46-0.08-.48a0.7,0.7,0,0,1-.25-0.14l-0.88,0S-93,502.73-92.22,502.3Z" transform="translate(116.38 -449.6)"/><path class="cls-1" d="M-93.94,488.55S-96.18,467-97.2,464.1l-1.6.62-1.6-.62c-1,2.89-3.26,24.45-3.26,24.45-6,5.29-1.74,14.76-1.74,14.76a7.26,7.26,0,0,1,3.8-1v1l1.52,0.2,0.05-1.06a10.53,10.53,0,0,1,1.22.23,10.53,10.53,0,0,1,1.22-.23l0.05,1.06,1.52-.2v-1a7.26,7.26,0,0,1,3.8,1S-88,493.85-93.94,488.55Z" transform="translate(116.38 -449.6)"/><path class="cls-2" d="M-98.67,494.63A17.28,17.28,0,0,0-74.34,497a13.83,13.83,0,0,0,1.91-19.46A11.06,11.06,0,0,0-88,476a8.85,8.85,0,0,0-1.22,12.46,7.08,7.08,0,0,0,10,1,5.66,5.66,0,0,0,.78-8" transform="translate(116.38 -449.6)"/><path class="cls-1" d="M-90.24,460.93l-0.44-.86h0.18v-0.63s0.59,0.41,0-.32A18.27,18.27,0,0,1-92,455.6c1.75-2.89-1.44-6-1.44-6l-3,4.15a4.43,4.43,0,0,0-2.26-.41,4.43,4.43,0,0,0-2.26.41l-3-4.15s-3.19,3.11-1.44,6a18.27,18.27,0,0,1-1.49,3.52c-0.59.72,0,.32,0,0.32v0.63h0.18l-0.44.86h0.62l-0.09.59h0.32l0.18,0.81h0.32l0.5,0.68,0.45-.27a7.8,7.8,0,0,0,6.14,2.48,7.8,7.8,0,0,0,6.14-2.48l0.45,0.27,0.5-.68h0.32l0.18-.81h0.32l-0.09-.59h0.62Zm-10.26.56c-0.31-.06-0.25-0.16-0.25-0.16s-4.6-.59-3.55-3.5c0,0-.39-0.28.3-0.4a3,3,0,0,1,3.05.84,2.41,2.41,0,0,1,.56,2.84S-100.2,461.55-100.51,461.49Zm1.84,2.92a2.71,2.71,0,0,0-1.17-1.11h2.33A3,3,0,0,0-98.67,464.41Zm2.09-3.08s0.05,0.1-.25.16-0.11-.39-0.11-0.39a2.41,2.41,0,0,1,.56-2.84,3,3,0,0,1,3.05-.84c0.68,0.12.3,0.4,0.3,0.4C-92,460.73-96.58,461.32-96.58,461.32Z" transform="translate(116.38 -449.6)"/><path class="cls-1" d="M-101.14,463.46a12.46,12.46,0,0,0-1.89-.78,17,17,0,0,0-2-.54,18.25,18.25,0,0,0-2.4-.33c-0.41,0-.83,0-1.23-0.05s-0.81,0-1.2,0-0.76.07-1.12,0.1-0.69.1-1,.15a14.28,14.28,0,0,0-1.47.31l-0.55.14,0.55-.15A14.33,14.33,0,0,1-112,462c0.31-.06.64-0.14,1-0.17s0.73-.11,1.12-0.13,0.79-.06,1.2-0.06,0.83,0,1.24,0a18.46,18.46,0,0,1,2.44.27,17.3,17.3,0,0,1,2.09.49,12.86,12.86,0,0,1,2,.75Z" transform="translate(116.38 -449.6)"/><path class="cls-1" d="M-100.85,464.25a18.63,18.63,0,0,0-2.44-.39,26.1,26.1,0,0,0-5.45,0,22.8,22.8,0,0,0-2.88.47c-0.46.09-.89,0.22-1.3,0.34a11,11,0,0,0-1.15.37,15.87,15.87,0,0,0-1.68.67l-0.63.28,0.62-.29a15.9,15.9,0,0,1,1.67-.71,11,11,0,0,1,1.14-.39c0.41-.12.84-0.27,1.3-0.37a23,23,0,0,1,2.89-.54,26.34,26.34,0,0,1,5.5-.12,19,19,0,0,1,2.49.35Z" transform="translate(116.38 -449.6)"/><path class="cls-1" d="M-100.49,464.95a8.24,8.24,0,0,0-1.36-.12,10.12,10.12,0,0,0-3,.38,7.67,7.67,0,0,0-1.51.6,4.88,4.88,0,0,0-.65.37,3.92,3.92,0,0,0-.55.39,5.65,5.65,0,0,0-.75.67l-0.27.27,0.26-.28a5.68,5.68,0,0,1,.73-0.7,4,4,0,0,1,.54-0.41,5,5,0,0,1,.64-0.41,7.81,7.81,0,0,1,1.51-.67,10.36,10.36,0,0,1,3.06-.51,8.61,8.61,0,0,1,1.42.07Z" transform="translate(116.38 -449.6)"/><path class="cls-1" d="M-96.36,463.14a12.86,12.86,0,0,1,2-.75,17.3,17.3,0,0,1,2.09-.49,18.46,18.46,0,0,1,2.44-.27c0.42,0,.83,0,1.24,0s0.81,0,1.2.06,0.76,0.09,1.12.13,0.69,0.11,1,.17a14.33,14.33,0,0,1,1.46.35l0.55,0.15-0.55-.14a14.28,14.28,0,0,0-1.47-.31c-0.31,0-.64-0.12-1-0.15s-0.73-.09-1.12-0.1-0.79,0-1.2,0-0.82,0-1.23.05a18.25,18.25,0,0,0-2.4.33,17,17,0,0,0-2,.54,12.46,12.46,0,0,0-1.89.78Z" transform="translate(116.38 -449.6)"/><path class="cls-1" d="M-96.57,463.9a19,19,0,0,1,2.49-.35,26.34,26.34,0,0,1,5.5.12,23,23,0,0,1,2.89.54c0.46,0.1.89,0.24,1.3,0.37a11,11,0,0,1,1.14.39,15.91,15.91,0,0,1,1.67.71L-81,466l-0.63-.28a15.87,15.87,0,0,0-1.68-.67,11,11,0,0,0-1.15-.37c-0.41-.11-0.84-0.25-1.3-0.34a22.8,22.8,0,0,0-2.88-.47,26.1,26.1,0,0,0-5.45,0,18.62,18.62,0,0,0-2.44.39Z" transform="translate(116.38 -449.6)"/><path class="cls-1" d="M-96.91,464.59a8.61,8.61,0,0,1,1.42-.07,10.36,10.36,0,0,1,3.06.51,7.81,7.81,0,0,1,1.51.67,5,5,0,0,1,.64.41,4,4,0,0,1,.54.41,5.68,5.68,0,0,1,.73.7l0.26,0.28-0.27-.27a5.65,5.65,0,0,0-.75-0.67,3.92,3.92,0,0,0-.55-0.39A4.89,4.89,0,0,0-91,465.8a7.67,7.67,0,0,0-1.51-.6,10.12,10.12,0,0,0-3-.38,8.24,8.24,0,0,0-1.36.12Z" transform="translate(116.38 -449.6)"/><path class="cls-1" d="M-101.93,457.56l0.08,0.2c0,0.12.09,0.28,0.14,0.46a3.51,3.51,0,0,1,.08.56,2.49,2.49,0,0,1,0,.56,1.58,1.58,0,0,1,0,.26c0,0.09-.06.18-0.07,0.26a1.69,1.69,0,0,1-.07.25c0,0.08-.08.17-0.1,0.24s-0.11.3-.16,0.42l-0.09.2a0.93,0.93,0,0,1-.19-0.08,1.83,1.83,0,0,1-.42-0.33,1.21,1.21,0,0,1-.18-0.28,2.68,2.68,0,0,1-.14-0.35,1.3,1.3,0,0,1-.06-0.38,3.33,3.33,0,0,1,0-.39,2.41,2.41,0,0,1,.22-0.71,1.88,1.88,0,0,1,.4-0.52,1.78,1.78,0,0,1,.42-0.29A1,1,0,0,1-101.93,457.56Z" transform="translate(116.38 -449.6)"/><path class="cls-1" d="M-95.41,457.56a1,1,0,0,1,.2.08,1.78,1.78,0,0,1,.42.29,1.88,1.88,0,0,1,.4.52,2.41,2.41,0,0,1,.22.71,3.31,3.31,0,0,1,0,.39,1.3,1.3,0,0,1-.06.38,2.66,2.66,0,0,1-.14.35,1.21,1.21,0,0,1-.18.28,1.83,1.83,0,0,1-.42.33,0.93,0.93,0,0,1-.19.08l-0.09-.2c-0.05-.12-0.11-0.27-0.16-0.42s-0.07-.16-0.1-0.24a1.7,1.7,0,0,1-.07-0.25c0-.08-0.06-0.17-0.07-0.26a1.58,1.58,0,0,1,0-.26,2.49,2.49,0,0,1,0-.56,3.5,3.5,0,0,1,.08-0.56c0-.18.09-0.34,0.14-0.46Z" transform="translate(116.38 -449.6)"/></svg>