<svg id="Objects" xmlns="http://www.w3.org/2000/svg" viewBox="0 0 462.78 494.01"><title>35</title><path d="M1844.56,182.61l-0.22-2.16c-8.57-.32-17.26-1.73-25.68-0.75a151.45,151.45,0,0,0-89.24,42.21A203.67,203.67,0,0,0,1677.72,303c-9.5,27.77-13.86,56.55-17,85.57-1.33,12.23-3.12,24.37-.34,36.76,8.33,37.2,20.77,73.07,36,107.86,12,27.4,25.76,54.06,38.94,80.94,4.92,10,12.37,17.82,23,21.89a103.21,103.21,0,0,0,48,6.42c25.92-2.6,42.62-16.11,51.8-39.88,1.56-4,3.37-8.09,4.08-12.3,1-6.19,2-12.57,1.59-18.78-0.85-12.8-9.54-20.47-22.35-20.83-3.33-.09-6.86.63-9.94-0.26-3.81-1.09-8.19-2.63-10.67-5.43-9.92-11.19-17-24.2-22.14-38.25-2.11-5.74-.87-10.5,3.54-14.46,3.4-3,7-5.86,11-9.2a15.65,15.65,0,0,1-1.92-1.24c-22.7-20.35-39.09-44.77-45.61-74.77-6-27.81-10.89-55.88-16-83.88-0.82-4.46-1.63-7.64-6.62-9.62-7.61-3-14.08-8.17-15.12-17.12-2.29-19.61.8-38.59,8.2-56.78,7.15-17.57,26.1-30.27,46-23.85,1.4,0.45,3.51-.29,4.95-1.09,16.85-9.43,33.62-19,50.43-28.47C1839.87,184.91,1842.24,183.8,1844.56,182.61Zm-199.88,406.6c0-1.59,0-3.22,0-4.85,0.34-23.8,1.71-47.64.75-71.39-1-24.26-3.35-48.54-6.71-72.59-4.34-31.05-15.8-59.29-36.68-83.47-5.24-6.07-10.17-14.22-11.07-21.9-3.19-27.3.85-53.52,17.57-76.54,2.25-3.1,4.22-6.4,6.26-9.64,15.14-24,36.21-42.54,56.85-61.45,1.17-1.07,3-1.44,4.48-2.13l-1.78-2.34c-10.84-.92-21.48.09-31.16,5.68-22.66,13.08-41.2,30.55-54.16,53.42-6.72,11.86-13.12,24-18.66,36.43-11.47,25.78-21.61,52.2-23.55,80.65q-4.35,64.07-6.92,128.25c-0.75,18.93.46,37.95,1.13,56.91,0.36,10.18-1,19.87-5.06,29.26-1.23,2.83-2.29,6.16-2,9.14,1,11.23,2.32,22.46,4.19,33.59,1.79,10.71,8.43,16.36,19.43,18.28,33.62,5.88,67.51,7.59,101.54,7.73,8.92,0,13-3.89,12.67-12.94C1671,609.6,1664.61,594.51,1644.68,589.21Zm212.15-106.73c0,19.95,0,38.55.09,57.16a4.06,4.06,0,0,0,2,2.77c16,8.43,23.45,22.8,19.78,40.56a174.72,174.72,0,0,1-8.52,27.6c-8.7,22.39-24.68,36.29-48.81,40.08a26,26,0,0,0-3.91.79c-0.9.29-2.29,0.8-2.42,1.44-1.05,4.93-3.07,10.09-2.4,14.83s6.23,5.65,10.59,5.65c25,0,49.94,0,74.9-.43,7.66-.12,14.76-2.6,19.82-9,10.8-13.73,22.52-26.84,32.13-41.36,7.16-10.82,13.46-22.95,16.86-35.39,9.82-36,17.9-72.39,26.83-108.59,3.66-14.83,2.92-29.86,2.8-45-4.82,6.68-9.21,13.47-13.28,20.46-0.91,1.56-.94,3.77-0.93,5.68,0.07,10.15-3.1,18.88-10.54,26a7.79,7.79,0,0,0-2.07,5.29c0.38,11.06-4.39,18.91-15.12,21-24.31,4.85-47.79,2.12-69.38-10.85C1876,495.61,1867.18,489.32,1856.84,482.48Zm-42.3-217.76c-0.49-4.23.3-8.78-1.57-11.54-7.44-11-16.69-20.33-29-26-6.4-3-13.08-4-19.92-1.73-10,3.33-15.53,11.05-19.35,20.27-6.18,14.9-7.35,30.66-7.48,46.54,0,4.79,2.87,8.07,6.77,10.4a40.4,40.4,0,0,0,25,5.33,10.21,10.21,0,0,0,8.84-6.4c1.57-3.49,3-7.06,4.55-10.53,1.47-3.19,3.89-4,6.91-2.12,2.38,1.51,4.6,3.28,6.88,4.95,7.54,5.54,12.55,4.11,14.6-4.89C1812.55,280.89,1813.34,272.58,1814.54,264.72ZM1657.85,472.85l-1.92.26c-0.32,3.63-1.55,7.44-.83,10.85,6.59,31.3,6.86,62.83,4.1,94.5-0.23,2.59.38,3.81,2.71,5,11.8,6.06,18.8,16.07,22.74,28.48,0.54,1.7,1,3.42,1.61,5.36l39.58,3C1699.59,572,1673,525.1,1657.85,472.85Zm244-77.48c0-15.36-8.78-27.91-20.43-31.73-5.28-1.73-7.51-.57-9.75,4.48-5.53,12.46-10.91,25-19.73,35.7-2.94,3.58-4.87,8.37-6.08,12.93-2,7.44,1,12.94,7.86,16.5,9,4.66,18.16,4.78,26.51-1.07C1893.72,422.7,1900.12,409,1901.8,395.37Zm69.93-124.64a23.31,23.31,0,0,0,1.23-3.47c2-15.94,2.56-31.92-.76-47.71-2.54-12.08-10.42-19.86-22.05-23.64-9.68-3.14-16.31-.72-21,8.18a112.52,112.52,0,0,0-7.2,18c-2.41,7.41.71,13.59,8.39,15.67,6.77,1.84,12,5.7,16.79,10.32,5.78,5.52,11.3,11.3,17.08,16.82A91.66,91.66,0,0,0,1971.74,270.74Zm-31.39,232c3.35-.44,9.51-0.86,15.48-2.15a5.89,5.89,0,0,0,2.94-10.07c-5-4.54-4.69-8.2,1.21-11.54,6.68-3.78,12.27-8.6,15.56-15.65,0.54-1.16.15-2.77,0.19-4.16a13.2,13.2,0,0,0-3.62.33c-14.57,5.66-29.29,9.7-45.14,6-1.83-.43-4,0.6-6,0.95,0.84,2,1.12,5,2.63,5.87a159.12,159.12,0,0,0,19.36,9.77c2.59,1.08,3.76,2.05,4,4.76,0.32,4.13-2.07,5.27-5.46,5.4-14.86.59-29.07-1-39.83-12.92-4.83-5.33-10.73-6.31-17.26-4.87-1.33.29-2.36,1.95-3.54,3a23.61,23.61,0,0,0,3.27,2.93c4,2.46,8.35,4.46,12.14,7.22s6.72,6.53,10.51,9.17a24.35,24.35,0,0,0,9.89,4.21C1923.52,502,1930.55,502.09,1940.34,502.78Zm54.37-98.07-0.87-.74c-0.85-2.85-1.33-5.89-2.62-8.53a208.17,208.17,0,0,0-10.75-20.24c-4-6.26-7.58-12.42-8.27-20a15,15,0,0,0-2.18-6c-2-3.43-5.56-3.84-8.78-2.49-2.09.87-5,3.07-5.13,4.81a238.43,238.43,0,0,0-.06,26.43c0.17,3.32,1.7,6.76,3.29,9.79,3.16,6,6.8,11.79,10.23,17.67,2.42,4.16,4.57,8.52,7.3,12.47,3.24,4.71,7.09,5.11,10.53.56C1990.48,414.32,1992.33,409.31,1994.72,404.71Z" transform="translate(-1533.94 -179.35)"/><path d="M1844.56,182.61c-2.32,1.19-4.69,2.3-7,3.58-16.81,9.49-33.58,19-50.43,28.47-1.44.8-3.55,1.55-4.95,1.09-19.93-6.42-38.87,6.28-46,23.85-7.41,18.2-10.49,37.18-8.2,56.78,1,8.95,7.51,14.1,15.12,17.12,5,2,5.8,5.17,6.62,9.62,5.14,28,10,56.07,16,83.88,6.51,30,22.91,54.42,45.61,74.77a15.65,15.65,0,0,0,1.92,1.24c-4,3.34-7.64,6.15-11,9.2-4.41,4-5.65,8.72-3.54,14.46,5.17,14.05,12.22,27.06,22.14,38.25,2.49,2.8,6.87,4.34,10.67,5.43,3.08,0.88,6.61.16,9.94,0.26,12.81,0.36,21.5,8,22.35,20.83,0.41,6.21-.54,12.6-1.59,18.78-0.71,4.21-2.52,8.26-4.08,12.3-9.18,23.77-25.88,37.29-51.8,39.88a103.21,103.21,0,0,1-48-6.42c-10.64-4.06-18.09-11.86-23-21.89-13.18-26.88-26.93-53.54-38.94-80.94-15.26-34.79-27.7-70.66-36-107.86-2.77-12.39-1-24.54.34-36.76,3.16-29,7.51-57.8,17-85.57a203.67,203.67,0,0,1,51.69-81.05,151.45,151.45,0,0,1,89.24-42.21c8.42-1,17.11.44,25.68,0.75Z" transform="translate(-1533.94 -179.35)"/><path d="M1644.68,589.21c19.93,5.3,26.33,20.39,27.11,40.08,0.36,9-3.75,13-12.67,12.94-34-.14-67.91-1.85-101.54-7.73-11-1.92-17.63-7.57-19.43-18.28-1.86-11.12-3.14-22.36-4.19-33.59-0.28-3,.78-6.31,2-9.14,4.08-9.38,5.42-19.08,5.06-29.26-0.67-19-1.88-38-1.13-56.91q2.54-64.16,6.92-128.25c1.93-28.45,12.08-54.87,23.55-80.65,5.54-12.45,11.94-24.56,18.66-36.43,13-22.86,31.5-40.34,54.16-53.42,9.67-5.58,20.32-6.6,31.16-5.68l1.78,2.34c-1.51.69-3.32,1.06-4.48,2.13-20.64,18.91-41.71,37.44-56.85,61.45-2,3.24-4,6.54-6.26,9.64-16.72,23-20.76,49.25-17.57,76.54,0.9,7.68,5.83,15.83,11.07,21.9,20.88,24.18,32.34,52.42,36.68,83.47,3.36,24.05,5.73,48.34,6.71,72.59,1,23.75-.41,47.59-0.75,71.39C1644.66,586,1644.68,587.63,1644.68,589.21Z" transform="translate(-1533.94 -179.35)"/><path d="M1856.84,482.48c10.35,6.83,19.17,13.13,28.43,18.69,21.59,13,45.06,15.7,69.38,10.85,10.73-2.14,15.49-10,15.12-21a7.79,7.79,0,0,1,2.07-5.29c7.44-7.16,10.6-15.88,10.54-26,0-1.91,0-4.13.93-5.68,4.07-7,8.46-13.78,13.28-20.46,0.12,15.18.86,30.21-2.8,45-8.93,36.2-17,72.64-26.83,108.59-3.4,12.44-9.7,24.56-16.86,35.39-9.6,14.52-21.33,27.63-32.13,41.36-5.06,6.43-12.16,8.91-19.82,9-25,.41-49.93.44-74.9,0.43-4.36,0-9.9-.8-10.59-5.65s1.34-9.9,2.4-14.83c0.14-.63,1.52-1.15,2.42-1.44a26,26,0,0,1,3.91-.79c24.13-3.79,40.12-17.69,48.81-40.08a174.72,174.72,0,0,0,8.52-27.6c3.68-17.75-3.78-32.13-19.78-40.56a4.06,4.06,0,0,1-2-2.77C1856.8,521,1856.84,502.43,1856.84,482.48Z" transform="translate(-1533.94 -179.35)"/><path d="M1814.54,264.72c-1.2,7.86-2,16.17-3.83,24.25-2,9-7.06,10.43-14.6,4.89-2.28-1.67-4.5-3.43-6.88-4.95-3-1.92-5.44-1.06-6.91,2.12-1.6,3.47-3,7-4.55,10.53a10.21,10.21,0,0,1-8.84,6.4,40.4,40.4,0,0,1-25-5.33c-3.9-2.33-6.81-5.61-6.77-10.4,0.13-15.88,1.31-31.63,7.48-46.54,3.82-9.22,9.37-16.94,19.35-20.27,6.84-2.28,13.52-1.22,19.92,1.73,12.32,5.68,21.57,15,29,26C1814.84,255.94,1814,260.49,1814.54,264.72Z" transform="translate(-1533.94 -179.35)"/><path d="M1657.85,472.85c15.17,52.25,41.74,99.18,68,147.44l-39.58-3c-0.58-1.94-1.07-3.65-1.61-5.36-3.93-12.4-10.94-22.41-22.74-28.48-2.32-1.19-2.93-2.41-2.71-5,2.77-31.67,2.49-63.2-4.1-94.5-0.72-3.41.51-7.23,0.83-10.85Z" transform="translate(-1533.94 -179.35)"/><path d="M1901.8,395.37c-1.68,13.63-8.09,27.33-21.61,36.81-8.36,5.85-17.5,5.74-26.51,1.07-6.88-3.56-9.83-9.06-7.86-16.5,1.21-4.55,3.13-9.34,6.08-12.93,8.82-10.74,14.2-23.23,19.73-35.7,2.24-5,4.47-6.21,9.75-4.48C1893,367.46,1901.81,380,1901.8,395.37Z" transform="translate(-1533.94 -179.35)"/><path d="M1971.74,270.74a91.66,91.66,0,0,1-7.55-5.81c-5.78-5.52-11.31-11.3-17.08-16.82-4.83-4.61-10-8.48-16.79-10.32-7.68-2.08-10.8-8.26-8.39-15.67a112.52,112.52,0,0,1,7.2-18c4.73-8.9,11.36-11.32,21-8.18,11.63,3.77,19.52,11.56,22.05,23.64,3.32,15.79,2.76,31.77.76,47.71A23.31,23.31,0,0,1,1971.74,270.74Z" transform="translate(-1533.94 -179.35)"/><path d="M1940.34,502.78c-9.79-.68-16.82-0.8-23.71-1.82a24.35,24.35,0,0,1-9.89-4.21c-3.79-2.64-6.76-6.44-10.51-9.17s-8.13-4.76-12.14-7.22a23.61,23.61,0,0,1-3.27-2.93c1.17-1,2.2-2.68,3.54-3,6.53-1.44,12.43-.46,17.26,4.87,10.76,11.87,25,13.51,39.83,12.92,3.39-.13,5.78-1.27,5.46-5.4-0.21-2.71-1.38-3.68-4-4.76a159.12,159.12,0,0,1-19.36-9.77c-1.51-.88-1.78-3.86-2.63-5.87,2-.35,4.18-1.38,6-0.95,15.85,3.74,30.58-.31,45.14-6a13.2,13.2,0,0,1,3.62-.33c0,1.4.35,3-.19,4.16-3.29,7.05-8.88,11.87-15.56,15.65-5.9,3.34-6.19,7-1.21,11.54a5.89,5.89,0,0,1-2.94,10.07C1949.85,501.92,1943.69,502.34,1940.34,502.78Z" transform="translate(-1533.94 -179.35)"/><path d="M1994.72,404.71c-2.39,4.6-4.23,9.62-7.31,13.7-3.44,4.55-7.29,4.14-10.53-.56-2.72-4-4.87-8.31-7.3-12.47-3.43-5.88-7.07-11.65-10.23-17.67-1.59-3-3.11-6.46-3.29-9.79a238.43,238.43,0,0,1,.06-26.43c0.1-1.75,3-3.94,5.13-4.81,3.22-1.35,6.74-.94,8.78,2.49a15,15,0,0,1,2.18,6c0.69,7.58,4.3,13.74,8.27,20a208.17,208.17,0,0,1,10.75,20.24c1.29,2.64,1.77,5.67,2.62,8.53Z" transform="translate(-1533.94 -179.35)"/></svg>